<svg xmlns="http://www.w3.org/2000/svg" xmlns:xlink="http://www.w3.org/1999/xlink" viewBox="0 0 47.66 47.66"><defs><style>.cls-1{fill:url(#linear-gradient);}.cls-2{fill:#ff1753;}.cls-2,.cls-3,.cls-4{fill-rule:evenodd;}.cls-3{fill:#fff;}.cls-4{fill:#00c9d0;}</style><linearGradient id="linear-gradient" x1="6.98" y1="6.98" x2="40.68" y2="40.68" gradientUnits="userSpaceOnUse"><stop offset="0" stop-color="#23004a"/><stop offset="0.96" stop-color="#020003"/><stop offset="1"/></linearGradient></defs><g id="Layer_2" data-name="Layer 2"><g id="ELEMENTS"><circle class="cls-1" cx="23.83" cy="23.83" r="23.83"/><path class="cls-2" d="M28.82,20.11a10.57,10.57,0,0,0,6.14,2v-4.4a6.12,6.12,0,0,1-1.28-.14V21a10.57,10.57,0,0,1-6.15-2v9a8.14,8.14,0,0,1-12.68,6.76,8.15,8.15,0,0,0,14-5.69v-9Zm1.59-4.45a6.16,6.16,0,0,1-1.59-3.59V11.5H27.6a6.16,6.16,0,0,0,2.81,4.16ZM17.7,31.34a3.62,3.62,0,0,1-.76-2.25,3.72,3.72,0,0,1,3.72-3.73,3.56,3.56,0,0,1,1.13.18V21A7.91,7.91,0,0,0,20.5,21v3.5a3.86,3.86,0,0,0-1.13-.17,3.72,3.72,0,0,0-1.67,7.05Z"/><path class="cls-3" d="M27.53,19a10.57,10.57,0,0,0,6.15,2V17.53a6.16,6.16,0,0,1-3.27-1.87A6.16,6.16,0,0,1,27.6,11.5H24.39V29.1a3.73,3.73,0,0,1-6.69,2.24,3.72,3.72,0,0,1,1.67-7,3.77,3.77,0,0,1,1.13.17V21a8.14,8.14,0,0,0-5.65,13.83A8.14,8.14,0,0,0,27.53,28Z"/><path class="cls-4" d="M33.68,17.53v-.94a6.09,6.09,0,0,1-3.27-.93A6.18,6.18,0,0,0,33.68,17.53Zm-6.08-6c0-.17-.05-.33-.07-.5v-.57H23.1V28a3.72,3.72,0,0,1-5.4,3.31,3.73,3.73,0,0,0,6.69-2.24V11.5ZM20.5,21V20a8.29,8.29,0,0,0-1.11-.08,8.14,8.14,0,0,0-4.54,14.91A8.14,8.14,0,0,1,20.5,21Z"/></g></g></svg>